<?xml version="1.0" encoding="UTF-8" standalone="no"?>
<!-- Created with Inkscape (http://www.inkscape.org/) -->

<svg
   xmlns:dc="http://purl.org/dc/elements/1.1/"
   xmlns:cc="http://creativecommons.org/ns#"
   xmlns:rdf="http://www.w3.org/1999/02/22-rdf-syntax-ns#"
   xmlns:svg="http://www.w3.org/2000/svg"
   xmlns="http://www.w3.org/2000/svg"
   xmlns:sodipodi="http://sodipodi.sourceforge.net/DTD/sodipodi-0.dtd"
   xmlns:inkscape="http://www.inkscape.org/namespaces/inkscape"
   width="500"
   height="500"
   id="svg2"
   version="1.1"
   inkscape:version="0.48.4 r9939"
   sodipodi:docname="pd-fist.svg"
   inkscape:export-filename="/home/sam/git/website/img/pd-bw-fist.png"
   inkscape:export-xdpi="90"
   inkscape:export-ydpi="90">
  <defs
     id="defs4" />
  <sodipodi:namedview
     id="base"
     pagecolor="#ffffff"
     bordercolor="#666666"
     borderopacity="1.0"
     inkscape:pageopacity="0.0"
     inkscape:pageshadow="2"
     inkscape:zoom="1.2855201"
     inkscape:cx="336.69091"
     inkscape:cy="257.9769"
     inkscape:document-units="px"
     inkscape:current-layer="layer1"
     showgrid="true"
     inkscape:window-width="1855"
     inkscape:window-height="1056"
     inkscape:window-x="65"
     inkscape:window-y="24"
     inkscape:window-maximized="1" />
  <metadata
     id="metadata7">
    <rdf:RDF>
      <cc:Work
         rdf:about="">
        <dc:format>image/svg+xml</dc:format>
        <dc:type
           rdf:resource="http://purl.org/dc/dcmitype/StillImage" />
        <dc:title></dc:title>
      </cc:Work>
    </rdf:RDF>
  </metadata>
  <g
     inkscape:label="Layer 1"
     inkscape:groupmode="layer"
     id="layer1"
     transform="translate(0,-552.36218)">
    <path
       style="fill:#000000;fill-opacity:1"
       d="M 447.65625 0 L 447.65625 79.84375 C 447.656 94.895436 448.06827 117.45997 448.84375 147.5625 L 447.65625 147.5625 C 447.26839 135.81532 437.587 127.19437 418.59375 121.6875 C 399.98771 116.18116 379.65678 113.43777 357.5625 113.4375 C 316.47446 113.43777 287.1929 119.31534 269.75 131.0625 C 259.97588 137.64525 252.95347 146.59772 248.65625 157.90625 C 244.32991 149.99691 238.19685 142.69024 230.25 136 C 213.19437 120.94887 185.84911 113.43777 148.25 113.4375 C 88.55609 113.43777 56.60749 124.80211 52.34375 147.5625 L 51.75 147.5625 L 51.75 118.9375 L 0 118.9375 L 0 500 L 52.34375 500 L 52.34375 368.40625 C 56.219868 376.1155 65.520255 381.79768 80.25 385.46875 C 94.979494 389.13981 110.08872 390.96875 125.59375 390.96875 C 141.09845 390.96875 154.27138 390.41382 165.125 389.3125 C 175.97819 388.57829 187.59587 386.38982 200 382.71875 C 212.40364 379.04768 222.29117 374.08458 229.65625 367.84375 C 237.04227 361.54794 243.20156 352.89884 248.125 341.9375 C 252.20008 355.55189 259.02255 365.85594 268.59375 372.8125 C 285.26142 384.92704 313.95584 390.96875 354.65625 390.96875 C 383.72773 390.96875 406.58206 387.31089 423.25 379.96875 C 440.30513 372.25951 448.84351 363.6073 448.84375 354.0625 L 448.84375 385.46875 L 500 385.46875 L 500 0 L 447.65625 0 z M 370.34375 148.125 C 421.89726 148.12524 447.656 160.04451 447.65625 183.90625 L 447.65625 315.53125 C 447.656 330.58269 441.08517 341.22797 427.90625 347.46875 C 415.11452 353.7096 394.37134 356.84378 365.6875 356.84375 C 340.10432 356.84378 321.88456 353.7096 311.03125 347.46875 C 306.12537 344.54338 302.38487 340.64236 299.78125 335.78125 C 285.83072 337.47782 225.96147 343.83225 223.96875 343.78125 C 222.084 343.73295 219.91317 343.40462 211.15625 341.75 L 200.65625 339.75 L 199.65625 339.0625 C 199.02789 338.61347 198.57381 337.99939 197.28125 335.40625 C 194.54219 341.02191 190.81173 345.23942 186.0625 348.03125 C 175.20886 354.2721 155.43382 357.37503 126.75 357.375 C 98.453454 357.37503 78.88454 354.2721 68.03125 348.03125 C 57.565354 341.42336 52.343652 326.8936 52.34375 304.5 L 52.34375 206.5 C 52.343652 181.53691 57.359226 165.7644 67.4375 159.15625 C 77.903169 152.54855 97.472085 149.21898 126.15625 149.21875 C 154.84008 149.21898 174.82124 152.71269 186.0625 159.6875 C 191.42466 162.83976 195.51242 168.03426 198.3125 175.28125 C 201.99121 174.83415 206.59331 174.95048 220.5625 175.53125 C 229.98522 175.92301 253.40481 176.90129 272.59375 177.6875 C 277.40452 177.88461 291.93803 178.43863 295.5625 178.625 C 295.88516 174.70678 296.57895 171.23849 297.65625 168.1875 C 297.62628 168.10517 297.62997 168.00967 297.65625 167.90625 C 298.58323 164.2581 299.10463 163.00048 301 161.28125 C 301.07248 161.30023 301.17557 161.32458 301.25 161.34375 C 303.36384 158.50187 306.02484 156.29209 309.28125 154.75 C 318.97169 150.34495 339.33386 148.12524 370.34375 148.125 z M 250.25 177.4375 C 250.04136 177.4672 250.06115 177.5275 250.34375 177.59375 C 250.59945 177.65375 250.75442 177.6493 250.6875 177.5625 C 250.6205 177.4757 250.43882 177.4106 250.25 177.4375 z "
       transform="translate(0,552.36218)"
       id="rect3026" />
    <g
       transform="scale(1.0275613,0.97317798)"
       style="font-size:157.17713928px;font-style:normal;font-weight:normal;line-height:125%;letter-spacing:-63.14591599px;word-spacing:0px;fill:#000000;fill-opacity:1;stroke:none;font-family:Sans"
       id="text2985" />
    <path
       style="fill:#000000"
       d="m 335.05563,803.55784 c -4.15519,1.24713 -14.67522,-2.47698 -18.23397,-6.23416 -0.61615,-0.65051 0.88229,3.02003 -1.88182,-32.75515 -2.14702,-27.78827 -1.54932,-31.07692 -7.91781,-32.93416 3.06742,-0.6208 -5.44358,-0.69951 -11.25121,-0.75825 -0.43404,-2.33876 0.82495,-8.17417 1.9285,-10.53324 8.57094,1.1679 25.59699,5.29283 34.57928,7.76157 3.11117,0.95398 8.14033,4.08703 10.17368,8.21736 1.62009,3.29086 1.42363,6.7046 0.17359,19.64606 -0.60439,6.25703 -1.89689,16.45427 -2.63454,24.50266 -0.91722,10.00743 -1.7625,16.00655 -2.43065,18.74759 l -0.9436,3.87107 z m -24.45492,47.95392 c -0.6783,1.87405 2.36242,1.62251 -39.35547,3.25563 -20.81702,0.81493 -37.93541,1.49394 -38.04087,1.50892 -0.17127,0.0243 -0.0405,4.30691 0.13872,4.54225 0.0401,0.0527 14.52184,-0.43037 32.18164,-1.07344 l 32.10871,-1.16921 0.53277,0.5265 c 3.31464,3.27571 3.92366,23.63956 0.73838,24.6888 -1.25635,0.41384 -71.30624,7.98357 -73.38161,7.92977 -1.75076,-0.0454 -3.74477,-0.36858 -11.8792,-1.9253 l -9.77526,-1.87078 -0.91163,-0.65977 c -0.82299,-0.59564 -1.22383,-1.31967 -4.12291,-7.44719 -3.98936,-8.43196 -3.97611,-8.36292 -2.3983,-12.50647 2.51116,-6.59458 1.46649,-8.52567 -7.42127,-13.71826 -8.12655,-4.74783 -7.84209,-4.28583 -9.14699,-14.85658 -1.10532,-8.95398 -1.07031,-9.27229 1.4135,-12.84763 4.28412,-6.16685 3.34411,-8.68279 -5.30008,-14.18559 -2.71439,-1.72796 -4.6028,-3.44525 -5.08419,-4.62348 -0.72709,-1.77961 -1.39217,-17.36415 -0.85591,-20.05646 0.10669,-1.55654 0.46599,-2.21911 1.54558,-3.20215 0.60989,-0.55535 3.08076,-2.25814 5.49081,-3.78394 8.91694,-5.64532 9.55306,-7.52273 4.91169,-14.4959 -2.62002,-3.93632 -2.53851,-3.43876 -2.30188,-14.05304 0.23869,-10.70738 0.20413,-10.42513 1.41991,-11.43298 2.28291,-1.89173 9.62935,-4.46375 17.8216,-6.23941 5.21206,-1.12972 5.71757,-1.13818 23.44178,-0.39184 8.7529,0.36858 30.49836,1.27534 48.32325,2.01503 35.97261,1.49279 33.73076,1.33231 34.54794,2.47293 3.83308,5.35024 3.78012,30.37534 -0.0673,31.80649 -0.40642,0.15117 -14.30202,0.17778 -38.36422,0.0735 -20.74986,-0.09 -37.76716,-0.14745 -37.81622,-0.12778 -0.11502,0.0461 0.0998,4.09591 0.23407,4.41151 0.0666,0.15658 13.39981,0.53204 38.63618,1.08798 42.66445,0.93987 39.6984,0.80063 40.50879,1.90128 3.77211,5.12295 4.60271,37.01217 1.0073,38.67311 -0.16613,0.0767 -17.7409,0.25115 -39.05504,0.38756 -21.31414,0.1364 -38.84587,0.29505 -38.95938,0.35253 -0.45501,0.23043 -0.011,4.48694 0.47344,4.53928 0.38436,0.0415 47.4923,0.23872 69.28686,0.29006 l 7.05001,0.0166 0.51565,0.50679 c 2.93319,2.88283 4.24229,23.23471 1.90918,29.68068 z m -23.68436,-114.7595 c -0.19382,0.0279 -0.14951,0.0861 0.11301,0.14842 0.23754,0.0565 0.38106,0.0357 0.3189,-0.046 -0.0622,-0.0816 -0.25653,-0.12778 -0.43192,-0.10246 z m -36.98258,-1.53104 c -0.19381,0.0279 -0.14948,0.0861 0.11302,0.14841 0.23753,0.0565 0.38105,0.0357 0.3189,-0.046 -0.0622,-0.0816 -0.25651,-0.12776 -0.43191,-0.10246 z"
       id="path3020"
       inkscape:connector-curvature="0"
       sodipodi:nodetypes="sssccccsssscscsccscssssccsssssssccssscsssscsccsccsccscscccccccccccc" />
  </g>
  <g
     inkscape:groupmode="layer"
     id="layer2"
     inkscape:label="Layer" />
</svg>
