<?xml version="1.0" encoding="UTF-8" standalone="no"?>
<!-- Created with Inkscape (http://www.inkscape.org/) -->

<svg
   xmlns:dc="http://purl.org/dc/elements/1.1/"
   xmlns:cc="http://creativecommons.org/ns#"
   xmlns:rdf="http://www.w3.org/1999/02/22-rdf-syntax-ns#"
   xmlns:svg="http://www.w3.org/2000/svg"
   xmlns="http://www.w3.org/2000/svg"
   xmlns:sodipodi="http://sodipodi.sourceforge.net/DTD/sodipodi-0.dtd"
   xmlns:inkscape="http://www.inkscape.org/namespaces/inkscape"
   width="500"
   height="500"
   id="svg2"
   version="1.1"
   inkscape:version="0.48.4 r9939"
   inkscape:export-filename="/home/sam/git/website/img/pd.png"
   inkscape:export-xdpi="90"
   inkscape:export-ydpi="90"
   sodipodi:docname="New document 1">
  <defs
     id="defs4" />
  <sodipodi:namedview
     id="base"
     pagecolor="#ffffff"
     bordercolor="#666666"
     borderopacity="1.0"
     inkscape:pageopacity="0.0"
     inkscape:pageshadow="2"
     inkscape:zoom="1.8169142"
     inkscape:cx="250.09214"
     inkscape:cy="249.82753"
     inkscape:document-units="px"
     inkscape:current-layer="layer1"
     showgrid="false"
     inkscape:window-width="1855"
     inkscape:window-height="1056"
     inkscape:window-x="65"
     inkscape:window-y="24"
     inkscape:window-maximized="1" />
  <metadata
     id="metadata7">
    <rdf:RDF>
      <cc:Work
         rdf:about="">
        <dc:format>image/svg+xml</dc:format>
        <dc:type
           rdf:resource="http://purl.org/dc/dcmitype/StillImage" />
        <dc:title></dc:title>
      </cc:Work>
    </rdf:RDF>
  </metadata>
  <g
     inkscape:label="Layer 1"
     inkscape:groupmode="layer"
     id="layer1"
     transform="translate(0,-552.36218)">
    <rect
       style="fill:none;fill-opacity:1"
       id="rect2998"
       width="499.79434"
       height="500.2988"
       x="0.19497181"
       y="552.38525"
       inkscape:export-xdpi="90"
       inkscape:export-ydpi="90" />
    <g
       transform="matrix(3.577979,0,0,3.5886483,-210.07791,-93.010849)"
       style="font-size:40px;font-style:normal;font-weight:normal;line-height:125%;letter-spacing:0px;word-spacing:0px;fill:#ffffff;fill-opacity:1;stroke:none;font-family:Sans"
       id="flowRoot2985">
      <path
         d="m 71.804687,277.43813 0,41.76562 -13.007812,0 0,-108.70312 13.007812,0 0,11.95312 c 2.718722,-4.68742 6.140593,-8.15617 10.265625,-10.40625 4.171835,-2.29679 9.14058,-3.44523 14.90625,-3.44531 9.562438,8e-5 17.320248,3.79695 23.273438,11.39063 5.99992,7.59381 8.99992,17.57817 9,29.95312 -8e-5,12.37503 -3.00008,22.35939 -9,29.95313 -5.95319,7.59375 -13.711,11.39062 -23.273438,11.39062 -5.76567,0 -10.734415,-1.125 -14.90625,-3.375 -4.125032,-2.29687 -7.546903,-5.78905 -10.265625,-10.47656"
         style="font-size:144px;letter-spacing:-17px;fill:#ffffff"
         id="path2994"
         inkscape:connector-curvature="0"
         sodipodi:nodetypes="cccccccccccscc" />
      <path
         d="m 185.51562,222.45375 0,-42.60937 12.9375,0 0,109.40625 -12.9375,0 0,-11.8125 c -2.71881,4.68751 -6.16412,8.17969 -10.33593,10.47656 -4.12505,2.25 -9.0938,3.375 -14.90625,3.375 -9.51566,0 -17.27346,-3.79687 -23.27344,-11.39062 -5.95314,-7.59374 -8.9297,-17.5781 -8.92969,-29.95313 -1e-5,-12.37495 2.97655,-22.35931 8.92969,-29.95312 5.99998,-7.59368 13.75778,-11.39055 23.27344,-11.39063 5.81245,8e-5 10.7812,1.14852 14.90625,3.44531 4.17181,2.25008 7.61712,5.71883 10.33593,10.40625"
         style="font-size:144px;letter-spacing:-17px;fill:#ffffff"
         id="path2996"
         inkscape:connector-curvature="0"
         sodipodi:nodetypes="cccccccscscccc" />
    </g>
  </g>
</svg>
