<?xml version="1.0" encoding="UTF-8" standalone="no"?>
<!-- Created with Inkscape (http://www.inkscape.org/) -->

<svg
   xmlns:dc="http://purl.org/dc/elements/1.1/"
   xmlns:cc="http://creativecommons.org/ns#"
   xmlns:rdf="http://www.w3.org/1999/02/22-rdf-syntax-ns#"
   xmlns:svg="http://www.w3.org/2000/svg"
   xmlns="http://www.w3.org/2000/svg"
   xmlns:sodipodi="http://sodipodi.sourceforge.net/DTD/sodipodi-0.dtd"
   xmlns:inkscape="http://www.inkscape.org/namespaces/inkscape"
   width="500"
   height="500"
   id="svg2"
   version="1.1"
   inkscape:version="0.48.4 r9939"
   sodipodi:docname="pd2.svg">
  <defs
     id="defs4" />
  <sodipodi:namedview
     id="base"
     pagecolor="#ffffff"
     bordercolor="#666666"
     borderopacity="1.0"
     inkscape:pageopacity="0.0"
     inkscape:pageshadow="2"
     inkscape:zoom="1.818"
     inkscape:cx="250"
     inkscape:cy="250"
     inkscape:document-units="px"
     inkscape:current-layer="layer1"
     showgrid="false"
     inkscape:window-width="1855"
     inkscape:window-height="1056"
     inkscape:window-x="65"
     inkscape:window-y="24"
     inkscape:window-maximized="1" />
  <metadata
     id="metadata7">
    <rdf:RDF>
      <cc:Work
         rdf:about="">
        <dc:format>image/svg+xml</dc:format>
        <dc:type
           rdf:resource="http://purl.org/dc/dcmitype/StillImage" />
        <dc:title></dc:title>
      </cc:Work>
    </rdf:RDF>
  </metadata>
  <g
     inkscape:label="Layer 1"
     inkscape:groupmode="layer"
     id="layer1"
     transform="translate(0,-552.36218)">
    <g
       transform="matrix(3.6409817,0,0,3.6674116,-142.24601,-60.991774)"
       style="font-size:40px;font-style:normal;font-weight:normal;line-height:125%;letter-spacing:0px;word-spacing:0px;fill:#ffffff;fill-opacity:1;stroke:none;font-family:Sans"
       id="flowRoot2985">
      <path
         d="m 36.046875,200.64281 12.445312,0 c 1.265605,3.98444 1.898417,7.66413 1.898438,11.03906 3.046851,-3.51556 6.67966,-6.39837 10.898437,-8.64843 4.265589,-2.24993 8.460897,-3.37493 12.585938,-3.375 6.374949,7e-5 12.187443,1.68757 17.4375,5.0625 5.296808,3.37506 9.4218,7.87505 12.375,13.5 2.99992,5.57817 4.49992,11.62504 4.5,18.14062 -8e-5,6.51565 -1.50008,12.58596 -4.5,18.21094 -2.9532,5.57813 -7.078192,10.05469 -12.375,13.42969 -5.250057,3.32812 -11.062551,4.99218 -17.4375,4.99218 -4.171916,0 -8.390661,-1.05468 -12.65625,-3.16406 -4.265653,-2.15625 -7.875024,-4.96874 -10.828125,-8.4375 l 0,42.1875 -11.179688,0 0,-81.98437 c -1e-5,-3.56245 -0.304697,-7.54682 -0.914062,-11.95313 -0.562509,-4.40618 -1.312508,-7.40618 -2.25,-9 m 14.34375,35.71875 c -2.1e-5,7.31253 2.320289,13.50002 6.960937,18.5625 4.687468,5.01564 10.195275,7.52345 16.523438,7.52344 6.234324,1e-5 11.695256,-2.53124 16.382812,-7.59375 4.687435,-5.06248 7.031182,-11.22654 7.03125,-18.49219 -6.8e-5,-7.26558 -2.343815,-13.42964 -7.03125,-18.49219 -4.687556,-5.10931 -10.148488,-7.664 -16.382812,-7.66406 -6.328163,6e-5 -11.83597,2.55475 -16.523438,7.66406 -4.640648,5.06255 -6.960958,11.22661 -6.960937,18.49219"
         style="font-size:144px;font-variant:normal;font-weight:bold;font-stretch:normal;text-align:start;line-height:125%;letter-spacing:-13.72999953999999967px;writing-mode:lr-tb;text-anchor:start;fill:#ffffff;font-family:Sawasdee;-inkscape-font-specification:Sawasdee Bold"
         id="path3112" />
      <path
         d="m 180.23875,272.08031 -12.44531,0 c -1.26569,-4.07812 -1.8985,-7.68749 -1.89844,-10.82812 -3.00006,3.46875 -6.63287,6.30469 -10.89843,8.50781 -4.2188,2.15625 -8.39067,3.23437 -12.51563,3.23437 -6.37503,0 -12.21096,-1.66406 -17.50781,-4.99218 -5.29689,-3.32812 -9.44533,-7.78124 -12.44531,-13.35938 -2.95314,-5.62498 -4.4297,-11.71872 -4.42969,-18.28125 -1e-5,-6.51558 1.47655,-12.56245 4.42969,-18.14062 2.99998,-5.62495 7.14842,-10.12494 12.44531,-13.5 5.29685,-3.37493 11.13278,-5.06243 17.50781,-5.0625 4.07808,7e-5 8.24995,1.07819 12.51563,3.23437 4.31244,2.15632 7.94525,4.94538 10.89843,8.36719 l 0,-44.01563 11.17969,0 0,83.95313 c -7e-5,3.46877 0.30461,7.4297 0.91406,11.88281 0.6093,4.40625 1.3593,7.40625 2.25,9 M 165.895,236.36156 c -6e-5,-7.26558 -2.34381,-13.42964 -7.03125,-18.49219 -4.64067,-5.10931 -10.10161,-7.664 -16.38281,-7.66406 -6.28128,6e-5 -11.78909,2.55475 -16.52344,7.66406 -4.68752,5.06255 -7.03126,11.22661 -7.03125,18.49219 -10e-6,7.26565 2.34373,13.42971 7.03125,18.49219 4.73435,5.06251 10.24216,7.59376 16.52344,7.59375 6.2812,1e-5 11.74214,-2.5078 16.38281,-7.52344 4.68744,-5.06248 7.03119,-11.24997 7.03125,-18.5625"
         style="font-size:144px;font-variant:normal;font-weight:bold;font-stretch:normal;text-align:start;line-height:125%;letter-spacing:-13.72999953999999967px;writing-mode:lr-tb;text-anchor:start;fill:#ffffff;font-family:Sawasdee;-inkscape-font-specification:Sawasdee Bold"
         id="path3114" />
    </g>
    <text
       xml:space="preserve"
       style="font-size:40px;font-style:normal;font-weight:normal;line-height:125%;letter-spacing:0px;word-spacing:0px;fill:#000000;fill-opacity:1;stroke:none;font-family:Sans"
       x="278.8779"
       y="404.29044"
       id="text2993"
       sodipodi:linespacing="125%"
       transform="translate(0,552.36218)"><tspan
         sodipodi:role="line"
         id="tspan2995"
         x="278.8779"
         y="404.29044" /></text>
    <text
       xml:space="preserve"
       style="font-size:40px;font-style:normal;font-weight:normal;line-height:125%;letter-spacing:0px;word-spacing:0px;fill:#000000;fill-opacity:1;stroke:none;font-family:Sans"
       x="-70.407043"
       y="173.26733"
       id="text2997"
       sodipodi:linespacing="125%"
       transform="translate(0,552.36218)"><tspan
         sodipodi:role="line"
         id="tspan2999"
         x="-70.407043"
         y="173.26733" /></text>
  </g>
</svg>
