<?xml version="1.0" encoding="UTF-8" standalone="no"?>
<!-- Created with Inkscape (http://www.inkscape.org/) -->

<svg
   xmlns:dc="http://purl.org/dc/elements/1.1/"
   xmlns:cc="http://creativecommons.org/ns#"
   xmlns:rdf="http://www.w3.org/1999/02/22-rdf-syntax-ns#"
   xmlns:svg="http://www.w3.org/2000/svg"
   xmlns="http://www.w3.org/2000/svg"
   xmlns:sodipodi="http://sodipodi.sourceforge.net/DTD/sodipodi-0.dtd"
   xmlns:inkscape="http://www.inkscape.org/namespaces/inkscape"
   width="500"
   height="500"
   id="svg2"
   version="1.1"
   inkscape:version="0.48.4 r9939"
   inkscape:export-filename="/home/sam/git/website/img/pf.png"
   inkscape:export-xdpi="90"
   inkscape:export-ydpi="90"
   sodipodi:docname="New document 1">
  <defs
     id="defs4" />
  <sodipodi:namedview
     id="base"
     pagecolor="#ffffff"
     bordercolor="#666666"
     borderopacity="1.0"
     inkscape:pageopacity="0.0"
     inkscape:pageshadow="2"
     inkscape:zoom="1.4"
     inkscape:cx="206.74036"
     inkscape:cy="294.3899"
     inkscape:document-units="px"
     inkscape:current-layer="layer1"
     showgrid="false"
     inkscape:window-width="1855"
     inkscape:window-height="1056"
     inkscape:window-x="65"
     inkscape:window-y="24"
     inkscape:window-maximized="1">
    <inkscape:grid
       type="xygrid"
       id="grid3036"
       empspacing="5"
       visible="true"
       enabled="true"
       snapvisiblegridlinesonly="true" />
  </sodipodi:namedview>
  <metadata
     id="metadata7">
    <rdf:RDF>
      <cc:Work
         rdf:about="">
        <dc:format>image/svg+xml</dc:format>
        <dc:type
           rdf:resource="http://purl.org/dc/dcmitype/StillImage" />
        <dc:title></dc:title>
      </cc:Work>
    </rdf:RDF>
  </metadata>
  <g
     inkscape:label="Layer 1"
     inkscape:groupmode="layer"
     id="layer1"
     transform="translate(0,-552.36218)">
    <path
       style="fill:#ffffff"
       d="M 250.65625 0.03125 C 245.38271 0.0304625 240.10525 0.1816 234.25 0.5 C 225.90265 0.95391 223.73562 1.20124 211.5 3.125 C 198.39445 5.18553 197.5943 5.36171 185.40625 8.625 C 173.63082 11.77781 172.01749 12.28395 160.5625 16.6875 C 149.53431 20.92699 147.19923 21.96756 136.90625 27.1875 C 126.57149 32.42863 124.42005 33.68948 114.25 40.28125 C 104.20018 46.79509 101.94764 48.40782 93.03125 55.625 C 84.053678 62.89171 82.080731 64.68043 73.21875 73.5625 C 64.592014 82.2088 62.395303 84.63742 55.5 93.125 C 48.450332 101.8026 46.852908 104.01508 40.1875 114.28125 C 33.502255 124.57797 32.173858 126.88405 27.03125 136.96875 C 21.809985 147.20769 20.912626 149.24571 16.65625 160.375 C 12.378961 171.55896 11.693002 173.63142 8.59375 185.09375 C 5.3201514 197.20089 5.1444531 198.00085 3.09375 210.9375 C 1.1919471 222.93484 0.93681616 225.21607 0.5 233.25 C -0.12301994 244.70861 -0.12566514 255.16658 0.5 266.6875 C 0.94893694 274.95416 1.2033815 277.16795 3.09375 289.125 C 5.1324379 302.0202 5.2816853 302.72233 8.625 315.0625 C 11.806816 326.80658 12.405861 328.64511 16.75 339.9375 C 21.034476 351.07478 21.962713 353.13645 27.28125 363.53125 C 32.505122 373.74104 33.852813 376.06938 40.34375 386.03125 C 46.925982 396.13323 48.383518 398.13471 56.40625 408 C 64.302771 417.71008 66.121279 419.73471 73.8125 427.34375 C 81.167702 434.62033 83.880799 437.0325 92.71875 444.15625 C 101.92402 451.57608 104.2834 453.2671 114.28125 459.75 C 124.47824 466.3619 126.51994 467.5592 136.90625 472.8125 C 147.13021 477.9837 149.60826 479.06595 160.5625 483.28125 C 171.95274 487.66435 173.67922 488.24405 185.40625 491.40625 C 197.65958 494.71045 198.37536 494.8659 211.5 496.9375 C 223.11458 498.7709 226.09283 499.1336 232.84375 499.5 C 243.75661 500.0927 256.69373 500.0819 267.46875 499.5 C 275.74378 499.0531 277.86011 498.81885 289.9375 496.90625 C 302.83759 494.86345 303.67945 494.6581 315.875 491.375 C 327.61924 488.2134 329.31924 487.66445 340.71875 483.28125 C 351.69998 479.05895 354.14212 477.9785 364.34375 472.8125 C 374.62149 467.6078 376.75652 466.3833 386.6875 459.9375 C 396.45078 453.6005 398.84383 451.86026 408.125 444.375 C 417.61191 436.72389 419.44114 435.10197 428.09375 426.4375 C 436.54495 417.97468 438.53641 415.7598 445.78125 406.8125 C 453.02224 397.86995 454.75692 395.49455 461 385.875 C 467.30085 376.16638 468.65837 373.7756 474.03125 363.25 C 479.50795 352.52105 480.44672 350.44281 484.65625 339.5 C 488.9443 328.35303 489.52113 326.61427 492.65625 314.9375 C 495.81846 303.15991 497.37234 295.70663 498.71875 285.9375 C 499.77627 278.26465 500.02916 275.7074 499.78125 275.625 C 499.62335 275.57256 499.59545 274.32145 499.71875 272.84375 C 499.84186 271.36858 499.95435 268.89834 499.96875 267.34375 L 500 264.53125 L 498.4375 264.3125 C 485.88998 262.77992 476.4017 260.03714 468.5 255.625 C 457.63815 249.55997 451.76794 242.30799 451.15625 234.21875 C 450.97512 231.82328 451.31581 229.06694 453.03125 218.46875 C 453.4508 215.87651 453.52852 214.47821 453.3125 214.21875 C 453.12601 213.99477 451.58683 213.7201 449.65625 213.59375 C 429.66055 212.28504 421.51867 209.9739 415.3125 203.8125 C 412.35003 200.8714 410.7337 198.06029 409.53125 193.6875 C 408.4806 189.86896 408.48086 179.95977 409.53125 170.84375 C 409.96874 167.04643 410.19539 164.1011 410.03125 163.9375 C 409.87378 163.78056 406.89399 162.82374 403.4375 161.84375 C 392.6906 158.7968 388.12376 156.54803 383.625 152.0625 C 379.50304 147.95265 377.56111 143.45364 376.96875 136.65625 C 376.42166 130.37835 377.61789 124.86881 380.875 118.4375 C 381.85575 116.501 383.87492 113.10909 387.03125 108.09375 L 388.71875 105.375 L 385.1875 101.5625 C 380.3732 96.33852 378.0494 93.61939 376.09375 90.9375 C 369.0714 81.30731 365.49313 72.31188 364.21875 61.15625 C 363.74375 56.99834 364.00953 47.29187 364.6875 44.21875 C 364.9468 43.04333 366.32906 39.31064 367.78125 35.90625 C 369.23344 32.50186 370.4375 29.54376 370.4375 29.34375 C 370.4375 29.14374 370.11834 28.82148 369.75 28.625 C 367.64843 27.50392 349.75202 20.16797 339.9375 16.40625 C 329.36253 12.35308 327.51573 11.76452 315.75 8.625 C 303.45068 5.34311 302.5863 5.15659 289.65625 3.125 C 277.61232 1.23264 275.3382 0.95581 267.03125 0.5 C 261.19904 0.17975 255.92979 0.0320375 250.65625 0.03125 z M 235.03125 25.375 C 236.44396 25.318782 237.40408 25.36769 237.75 25.5 C 238.15951 25.656633 238.24375 40.866824 238.25 133.9375 C 237.32853 132.92205 236.33998 131.92506 235.25 130.96875 C 228.35654 124.62899 217.29038 121.46886 202.09375 121.46875 C 177.96694 121.46886 165.06705 126.25673 163.34375 135.84375 L 163.09375 135.84375 L 163.09375 123.78125 L 142.1875 123.78125 L 142.1875 284.28125 L 163.34375 284.28125 L 163.34375 228.84375 C 164.91038 232.09101 168.6716 234.51619 174.625 236.0625 C 180.5783 237.60881 186.67075 238.375 192.9375 238.375 C 199.20411 238.375 204.55074 238.12014 208.9375 237.65625 C 213.32409 237.34699 218.0178 236.42131 223.03125 234.875 C 228.0445 233.32869 232.02321 231.25373 235 228.625 C 236.15457 227.59936 237.24431 226.41335 238.25 225.09375 L 238.25 268.53125 C 182.23938 324.36181 144.60016 362.03039 94.15625 411.84375 C 93.974461 411.84375 91.023805 409.03796 87.59375 405.59375 C 78.368045 396.32999 69.534716 385.28804 61.5 372.96875 C 56.29014 364.98069 54.513842 361.85259 49.78125 352.625 C 44.768519 342.85119 43.725751 340.56555 39.875 330.5 C 36.050672 320.50351 35.259398 318.03624 32.5 307.75 C 29.613685 296.99063 29.257942 295.41562 27.59375 284.65625 C 25.912044 273.78366 25.777349 272.4384 25.25 261.59375 C 24.721259 250.72064 24.723713 249.39788 25.25 238.46875 C 25.778383 227.49607 25.921494 226.2883 27.625 215.34375 C 29.29254 204.63026 29.627028 202.9635 32.5 192.25 C 35.249876 181.99554 36.070891 179.4656 39.875 169.5 C 43.74871 159.35206 44.713597 157.22879 49.78125 147.375 C 54.594618 138.01564 56.279775 135.10784 61.71875 126.8125 C 70.802069 112.95895 78.173381 103.90458 90.53125 91.46875 C 98.549155 83.40026 100.84762 81.31035 108.84375 74.84375 C 116.44395 68.69734 119.56586 66.41269 127.4375 61.3125 C 135.39964 56.15366 138.62714 54.3084 147.6875 49.6875 C 157.11549 44.87911 159.8488 43.67304 169.5625 39.9375 C 179.38728 36.15923 181.93698 35.3122 191.90625 32.625 C 202.07752 29.88335 204.26622 29.41509 214.4375 27.78125 C 222.50169 26.485872 230.79312 25.543655 235.03125 25.375 z M 264.5 25.375 C 267.69498 25.264494 277.44346 26.29823 286.71875 27.78125 C 296.76683 29.38783 298.91487 29.83768 309.40625 32.65625 C 319.28033 35.30897 322.32972 36.28879 330.09375 39.28125 L 339.21875 42.78125 L 339.25 53.6875 C 339.28798 62.20511 339.41438 65.26775 339.84375 67.8125 C 342.13363 81.38376 347.14342 93.39743 355.15625 104.5 C 356.54815 106.42862 357.6875 108.24532 357.6875 108.5 C 357.6875 108.75468 357.04981 110.55359 356.25 112.5 C 354.9699 115.61521 353.9727 118.69118 353.25 121.78125 C 347.08808 121.19735 341.11726 120.87514 335.34375 120.875 C 320.44256 120.87516 309.10168 123.39485 301.3125 128.4375 C 293.52324 133.48046 289.62497 142.28203 289.625 154.8125 L 289.625 172.6875 L 263.0625 172.6875 L 263.0625 147.125 C 263.05739 38.60012 263.11771 25.67013 263.5625 25.5 C 263.73105 25.43553 264.04357 25.390787 264.5 25.375 z M 336.09375 134.40625 C 341.75443 134.40637 347.00174 134.66325 351.84375 135.125 C 351.8897 137.04603 352.05454 138.97486 352.3125 140.90625 C 353.22141 147.71135 354.63791 152.40005 357.59375 158.1875 C 362.20948 167.22505 369.62528 174.36274 379.96875 179.71875 L 383.3125 181.4375 L 383.40625 183.34375 C 383.58651 187.85341 384.21354 193.95616 384.8125 196.90625 C 388.17598 213.47284 398.52179 225.92479 414.15625 232.21875 C 416.29633 233.08028 419.28395 234.05372 424.59375 235.59375 L 426.0625 236 L 426.59375 239.09375 C 427.2352 242.91005 427.59753 244.29621 429.03125 248.15625 C 432.89577 258.561 441.17826 268.02023 452.6875 275.21875 C 456.44445 277.56856 464.38377 281.33622 469.15625 283.03125 C 471.3103 283.79629 473.19444 284.5276 473.34375 284.65625 C 473.98657 285.20998 471.8212 296.14237 468.78125 307.59375 C 465.97655 318.15878 465.25594 320.36567 461.4375 330.34375 C 457.66629 340.19847 456.59168 342.58662 451.625 352.28125 C 446.8847 361.53402 445.11639 364.62851 439.75 372.875 C 431.67399 385.28524 422.4928 396.79057 413.40625 405.90625 C 410.15142 409.17154 407.32726 411.84375 407.125 411.84375 C 406.92275 411.84375 374.4179 379.59463 334.90625 340.1875 L 263.0625 268.53125 L 263.0625 186.21875 L 289.625 186.21875 L 289.625 283.625 L 312.46875 283.625 L 312.46875 186.21875 L 353.375 186.21875 L 353.375 172.6875 L 312.46875 172.6875 L 312.46875 153.4375 C 312.4687 145.94984 314.33716 140.91045 318.0625 138.3125 C 321.78772 135.71484 327.79646 134.4064 336.09375 134.40625 z M 193.1875 136.53125 C 204.7808 136.53135 212.83156 137.99961 217.375 140.9375 C 221.91825 143.72095 224.1874 150.29606 224.1875 160.65625 L 224.1875 201.9375 C 224.1874 211.37002 221.91825 217.49791 217.375 220.28125 C 212.98823 222.90999 204.99955 224.21876 193.40625 224.21875 C 181.96948 224.21876 174.07413 222.90999 169.6875 220.28125 C 165.45744 217.49791 163.34371 211.37002 163.34375 201.9375 L 163.34375 160.65625 C 163.34371 150.14142 165.36411 143.5022 169.4375 140.71875 C 173.66747 137.93549 181.59407 136.53135 193.1875 136.53125 z M 263.5 304.5 C 264.05128 304.5 387.71875 428.04304 387.71875 428.59375 C 387.71875 429.31187 383.49711 432.35935 373.46875 438.875 C 364.57025 444.65655 362.29874 445.95017 352.71875 450.75 C 343.68964 455.2738 340.19187 456.80355 331.125 460.28125 C 321.43163 463.99925 319.13291 464.752 308.59375 467.5625 C 297.71737 470.463 295.9805 470.82655 285.40625 472.46875 C 276.99698 473.77465 272.62548 474.30805 268.78125 474.46875 C 265.90919 474.58865 263.44713 474.574 263.3125 474.4375 C 263.17787 474.301 263.0625 436.01206 263.0625 389.34375 C 263.0625 316.78478 263.10883 304.5 263.5 304.5 z M 237.90625 304.6875 C 238.13403 304.91454 238.21215 332.13988 238.15625 389.75 L 238.09375 474.46875 L 235.46875 474.5 C 230.45613 474.5661 225.59957 474.0651 214.90625 472.375 C 205.01629 470.8118 203.15764 470.3971 192.21875 467.4375 C 181.46385 464.5278 179.22809 463.8 169.0625 459.875 C 159.44197 456.1605 156.33204 454.7746 147.6875 450.375 C 139.2134 446.06201 135.982 444.18727 127.78125 438.875 C 116.53088 431.5872 113.09192 428.99704 113.5625 428.15625 C 113.73126 427.85472 141.69632 399.86953 175.71875 365.96875 C 218.01892 323.81984 237.67718 304.45918 237.90625 304.6875 z "
       transform="translate(0,552.36218)"
       id="path2998" />
    <text
       xml:space="preserve"
       style="font-size:40px;font-style:normal;font-weight:normal;line-height:125%;letter-spacing:0px;word-spacing:0px;fill:#000000;fill-opacity:1;stroke:none;font-family:Sans"
       x="109.28571"
       y="161.42857"
       id="text3024"
       sodipodi:linespacing="125%"
       transform="translate(0,552.36218)"><tspan
         sodipodi:role="line"
         id="tspan3026"
         x="109.28571"
         y="161.42857" /></text>
  </g>
</svg>
