<?xml version="1.0" encoding="UTF-8" standalone="no"?>
<!-- Created with Inkscape (http://www.inkscape.org/) -->

<svg
   xmlns:dc="http://purl.org/dc/elements/1.1/"
   xmlns:cc="http://creativecommons.org/ns#"
   xmlns:rdf="http://www.w3.org/1999/02/22-rdf-syntax-ns#"
   xmlns:svg="http://www.w3.org/2000/svg"
   xmlns="http://www.w3.org/2000/svg"
   xmlns:sodipodi="http://sodipodi.sourceforge.net/DTD/sodipodi-0.dtd"
   xmlns:inkscape="http://www.inkscape.org/namespaces/inkscape"
   width="500"
   height="500"
   id="svg2"
   version="1.1"
   inkscape:version="0.48.4 r9939"
   sodipodi:docname="v11.svg">
  <defs
     id="defs4" />
  <sodipodi:namedview
     id="base"
     pagecolor="#ffffff"
     bordercolor="#666666"
     borderopacity="1.0"
     inkscape:pageopacity="0.0"
     inkscape:pageshadow="2"
     inkscape:zoom="1.4"
     inkscape:cx="253.57037"
     inkscape:cy="298.82787"
     inkscape:document-units="px"
     inkscape:current-layer="layer1"
     showgrid="false"
     inkscape:window-width="1855"
     inkscape:window-height="1056"
     inkscape:window-x="65"
     inkscape:window-y="24"
     inkscape:window-maximized="1" />
  <metadata
     id="metadata7">
    <rdf:RDF>
      <cc:Work
         rdf:about="">
        <dc:format>image/svg+xml</dc:format>
        <dc:type
           rdf:resource="http://purl.org/dc/dcmitype/StillImage" />
        <dc:title></dc:title>
      </cc:Work>
    </rdf:RDF>
  </metadata>
  <g
     inkscape:label="Layer 1"
     inkscape:groupmode="layer"
     id="layer1"
     transform="translate(0,-552.36218)">
    <path
       style="fill:#ffffff;fill-opacity:1"
       d="M 250 0 C 224.29484 0 199.49563 3.88836 176.15625 11.09375 C 184.00899 10.37975 191.96119 10 200 10 C 304.91446 10 395.31663 72.142039 436.40625 161.625 C 432.48819 158.52891 427.39216 155.73901 420.625 153.9375 C 417.46579 153.07906 414.26235 152.3027 411 151.59375 C 407.23066 129.38428 336.17099 45.878022 267.6875 34.8125 C 268.42772 48.996764 267.68296 63.920628 267.9375 74.21875 C 306.75252 76.089768 352.62246 113.70112 360.625 146.5625 C 353.7348 146.57022 347.17363 146.71092 340.96875 147.03125 C 324.30925 108.52675 292.92157 94.644429 268.1875 92.40625 C 268.36353 116.88553 268.36028 134.46683 268.1875 167.71875 C 256.0581 178.36945 249.99997 193.83347 250 214.09375 L 250 160.25 C 249.99972 141.63672 241.50653 125.67055 224.5 112.375 C 207.87089 98.747512 181.22137 91.937742 144.5625 91.9375 C 113.38654 91.93763 89.981587 94.930766 74.3125 100.84375 C 90.850443 72.014028 112.74739 46.654489 138.65625 26.125 C 56.472617 67.080547 0 151.93943 0 250 C -3.7895613e-14 388.07119 111.92882 500 250 500 C 275.70516 500 300.50437 496.1117 323.84375 488.90625 C 315.99101 489.62025 308.03881 490 300 490 C 192.5831 490 100.39096 424.87005 60.75 331.9375 C 65.271757 334.48903 71.08843 336.59974 78.21875 338.25 C 92.579932 341.57384 107.32018 343.21875 122.4375 343.21875 C 137.55446 343.21875 150.41779 342.7159 161 341.71875 C 171.58181 341.05398 182.90604 339.07384 195 335.75 C 207.09349 332.42616 216.75657 327.93181 223.9375 322.28125 C 231.4958 316.29838 237.71165 308.01131 242.625 297.375 C 247.5378 286.73879 249.99972 274.0937 250 259.46875 L 250 319.09375 C 249.99996 348.01397 258.12402 367.87371 274.375 378.71875 C 290.62587 389.56382 318.59859 395 358.28125 395 C 386.62576 395 408.90511 391.72902 425.15625 385.15625 C 429.10037 383.51932 432.58512 381.82312 435.59375 380.09375 C 418.38045 416.85659 392.8215 448.93287 361.34375 473.875 C 443.52739 432.91938 500 348.06057 500 250 C 500 111.92881 388.07118 0 250 0 z M 123.03125 124.34375 C 150.9978 124.34396 170.44611 127.49742 181.40625 133.8125 C 192.36595 139.79561 197.84351 153.94925 197.84375 176.21875 L 197.84375 264.96875 C 197.84351 285.24422 192.36595 298.36088 181.40625 304.34375 C 170.82404 309.99431 151.5603 312.81253 123.59375 312.8125 C 96.004779 312.81253 76.894393 309.99431 66.3125 304.34375 C 56.1083 298.36088 51.031171 285.24422 51.03125 264.96875 L 51.03125 176.21875 C 51.031171 153.61687 55.923729 139.32686 65.75 133.34375 C 75.953964 127.36105 95.06435 124.34396 123.03125 124.34375 z M 373.59375 177.59375 C 423.8581 177.59396 448.96851 188.29495 448.96875 209.65625 L 448.96875 327.46875 C 448.96851 340.943 442.5681 350.47568 429.71875 356.0625 C 417.2469 361.64939 397.02905 364.43753 369.0625 364.4375 C 344.11907 364.43753 326.33189 361.64939 315.75 356.0625 C 305.54584 350.47568 300.46867 340.943 300.46875 327.46875 L 300.46875 209.65625 C 300.46867 196.18228 304.99213 187.47512 314.0625 183.53125 C 323.51061 179.58779 343.35932 177.59396 373.59375 177.59375 z "
       transform="translate(0,552.36218)"
       id="path2985" />
    <g
       transform="matrix(3.9367599,0,0,3.4623299,-425.96037,-250.52938)"
       style="font-size:40px;font-style:normal;font-weight:normal;line-height:125%;letter-spacing:0px;word-spacing:0px;fill:#000000;fill-opacity:1;stroke:none;font-family:Sans"
       id="flowRoot3230" />
    <g
       transform="matrix(3.9367599,0,0,3.4233177,-1096.3079,14.739858)"
       style="font-size:40px;font-style:normal;font-weight:normal;line-height:125%;letter-spacing:0px;word-spacing:0px;fill:#000000;fill-opacity:1;stroke:none;font-family:Sans"
       id="flowRoot3238" />
  </g>
</svg>
